<svg width="24" height="24" viewBox="0 0 24 24" fill="none" xmlns="http://www.w3.org/2000/svg">
<path fill-rule="evenodd" clip-rule="evenodd" d="M22.5004 12C22.5004 12.1989 22.4213 12.3896 22.2807 12.5303C22.14 12.671 21.9493 12.75 21.7504 12.75H4.06086L8.78136 17.469C8.92219 17.6098 9.00131 17.8008 9.00131 18C9.00131 18.1991 8.92219 18.3901 8.78136 18.531C8.64053 18.6718 8.44953 18.7509 8.25036 18.7509C8.0512 18.7509 7.86019 18.6718 7.71936 18.531L1.71936 12.531C1.64952 12.4613 1.5941 12.3785 1.5563 12.2874C1.51849 12.1963 1.49902 12.0986 1.49902 12C1.49902 11.9013 1.51849 11.8036 1.5563 11.7125C1.5941 11.6214 1.64952 11.5386 1.71936 11.469L7.71936 5.46897C7.7891 5.39924 7.87188 5.34392 7.96299 5.30619C8.0541 5.26845 8.15175 5.24902 8.25036 5.24902C8.44953 5.24902 8.64053 5.32814 8.78136 5.46897C8.92219 5.6098 9.00131 5.80081 9.00131 5.99997C9.00131 6.19913 8.92219 6.39014 8.78136 6.53097L4.06086 11.25H21.7504C21.9493 11.25 22.14 11.329 22.2807 11.4696C22.4213 11.6103 22.5004 11.8011 22.5004 12Z" fill="white"/>
</svg>
