<svg width="21" height="14" viewBox="0 0 21 14" fill="none" xmlns="http://www.w3.org/2000/svg">
<path fill-rule="evenodd" clip-rule="evenodd" d="M0.000123978 7.24997C0.000123978 7.44888 0.0791416 7.63965 0.219793 7.7803C0.360447 7.92095 0.551212 7.99997 0.750124 7.99997L18.4396 7.99997L13.7191 12.719C13.5783 12.8598 13.4992 13.0508 13.4992 13.25C13.4992 13.4491 13.5783 13.6401 13.7191 13.781C13.86 13.9218 14.051 14.0009 14.2501 14.0009C14.4493 14.0009 14.6403 13.9218 14.7811 13.781L20.7811 7.78097C20.851 7.7113 20.9064 7.62854 20.9442 7.53742C20.982 7.4463 21.0015 7.34862 21.0015 7.24997C21.0015 7.15132 20.982 7.05364 20.9442 6.96252C20.9064 6.8714 20.851 6.78864 20.7811 6.71897L14.7811 0.718971C14.7114 0.649239 14.6286 0.593925 14.5375 0.556186C14.4464 0.518447 14.3487 0.499023 14.2501 0.499023C14.051 0.499023 13.86 0.578141 13.7191 0.718971C13.5783 0.859801 13.4992 1.05081 13.4992 1.24997C13.4992 1.44913 13.5783 1.64014 13.7191 1.78097L18.4396 6.49997L0.750124 6.49997C0.551212 6.49997 0.360447 6.57899 0.219793 6.71964C0.0791416 6.86029 0.000123978 7.05106 0.000123978 7.24997Z" fill="black"/>
</svg>
